<svg width="462" height="462" viewBox="0 0 462 462" fill="none" xmlns="http://www.w3.org/2000/svg">
<g opacity="0.3">
<path d="M101.391 111.896C57.8057 133.038 25.4749 186.648 19.0993 251.494C13.7309 306.14 26.5652 366.532 102.121 383.737C249.138 417.214 386.833 426.759 421.982 336.438C457.131 246.117 457.131 108.746 369.942 88.0572C311.37 74.1603 186.519 70.6121 101.4 111.896H101.391Z" fill="#E6E6E6"/>
</g>
<path d="M114.16 330.053C129.24 348.542 149.706 360.397 149.706 360.397V437.884H304.68V217.14L148.718 194.844C148.718 194.844 91.8362 223.072 93.8136 267.387C93.8136 267.387 98.1287 310.39 114.16 330.053Z" fill="#24285B"/>
<path d="M347.341 187.221H92.5569C88.7962 198.087 78.7615 233.513 93.8135 267.387C93.8135 267.387 115.943 214.303 164.102 207.54C214.349 200.48 253.019 224.477 256.41 269.642C259.801 314.807 221.603 345.862 221.603 345.862V391.028C221.603 402.882 243.991 410.792 259.801 413.61C275.611 416.428 321.339 427.729 335.449 418.692C349.568 409.655 350.131 404.01 350.131 388.209V339.653C350.131 339.653 376.668 347.553 379.487 330.616C382.314 313.679 355.777 263.996 352.386 250.45C349.706 239.732 350.907 203.945 347.341 187.221Z" fill="#68FD6E"/>
<path d="M173.481 343.682C206.243 343.682 232.802 317.123 232.802 284.361C232.802 251.599 206.243 225.04 173.481 225.04C140.719 225.04 114.16 251.599 114.16 284.361C114.16 317.123 140.719 343.682 173.481 343.682Z" fill="#68FD6E"/>
<path d="M339.68 243.529C339.68 243.529 279.131 252.003 285.063 255.809C290.995 259.616 337.565 265.622 339.68 263.469C341.796 261.316 339.68 243.529 339.68 243.529Z" fill="#24285B"/>
<path d="M224.042 144.366C224.042 144.366 189.605 161.589 181.695 161.303C173.795 161.016 124.675 150.575 121.007 144.366C117.339 138.157 117.902 122.07 117.902 122.07C117.902 122.07 106.325 112.192 104.356 106.824C102.379 101.465 108.025 72.0998 113.107 62.5087C118.189 52.9083 143.589 37.3851 150.935 35.4077C158.272 33.4304 220.66 24.1165 220.66 24.1165C220.66 24.1165 255.948 28.3484 268.366 32.5895C280.785 36.8215 306.472 46.9855 312.968 52.6311C319.464 58.2767 334.423 80.0092 333.86 87.9187C333.296 95.8189 322.282 122.643 317.773 128.002C313.254 133.361 291.522 144.089 291.522 144.089L224.051 144.375L224.042 144.366Z" fill="#FFD200"/>
<path d="M141.806 106.343V85.5163L164.056 63.4789H181.88C182.61 65.8074 184.763 67.5075 187.332 67.5075C190.501 67.5075 193.079 64.9388 193.079 61.7603C193.079 58.5817 190.51 56.0222 187.332 56.0222C184.763 56.0222 182.61 57.7224 181.88 60.0509H163.354C162.901 60.0509 162.467 60.2264 162.153 60.5498L138.896 83.5851C138.572 83.9085 138.388 84.3428 138.388 84.8048V106.343C136.059 107.073 134.359 109.226 134.359 111.795C134.359 114.964 136.928 117.542 140.106 117.542C143.285 117.542 145.853 114.973 145.853 111.795C145.853 109.226 144.153 107.073 141.825 106.343H141.806Z" fill="white"/>
<path d="M307.6 65.8258C305.031 65.8258 302.878 67.526 302.148 69.8544H248.667L233.088 46.893C232.765 46.4218 232.238 46.1446 231.675 46.1446H192.793C192.063 43.8161 189.91 42.116 187.341 42.116C184.172 42.116 181.594 44.6847 181.594 47.854C181.594 51.0233 184.162 53.6013 187.341 53.6013C189.91 53.6013 192.063 51.9011 192.793 49.5726H230.76L246.338 72.534C246.662 73.0053 247.189 73.2825 247.752 73.2825H302.139C302.869 75.611 305.022 77.3111 307.59 77.3111C310.76 77.3111 313.328 74.7424 313.328 71.5638C313.328 68.3853 310.76 65.8166 307.59 65.8166L307.6 65.8258Z" fill="white"/>
<path d="M303.081 86.9669C300.512 86.9669 298.359 88.6671 297.629 90.9956H220.623V69.9284C222.952 69.1984 224.652 67.0455 224.652 64.4768C224.652 61.3074 222.083 58.7295 218.905 58.7295C215.726 58.7295 213.157 61.2982 213.157 64.4768C213.157 67.0455 214.857 69.1984 217.186 69.9284V92.705C217.186 93.6475 217.953 94.4144 218.895 94.4144H297.611C298.341 96.7429 300.494 98.443 303.062 98.443C306.232 98.443 308.81 95.8743 308.81 92.6957C308.81 89.5172 306.241 86.9485 303.062 86.9485L303.081 86.9669Z" fill="white"/>
<path d="M283.889 111.795C281.321 111.795 279.168 113.495 278.438 115.823H199.251L189.604 101.954C190.362 100.984 190.824 99.7736 190.824 98.4522C190.824 95.2829 188.255 92.705 185.077 92.705C181.898 92.705 179.33 95.2737 179.33 98.4522C179.33 101.631 181.898 104.2 185.077 104.2C185.677 104.2 186.241 104.079 186.786 103.913L196.941 118.522C197.264 118.984 197.782 119.261 198.346 119.261H278.419C279.149 121.589 281.302 123.289 283.871 123.289C287.04 123.289 289.618 120.721 289.618 117.551C289.618 114.382 287.05 111.804 283.871 111.804L283.889 111.795Z" fill="white"/>
<path d="M168.732 122.827V83.5482H200.536C201.432 85.5625 203.437 86.967 205.775 86.967C208.944 86.967 211.522 84.3983 211.522 81.2197C211.522 78.0411 208.953 75.4724 205.775 75.4724C202.975 75.4724 200.656 77.4775 200.138 80.1201H167.013C166.07 80.1201 165.304 80.887 165.304 81.8295V122.818C162.975 123.548 161.275 125.701 161.275 128.27C161.275 131.439 163.844 134.017 167.022 134.017C170.201 134.017 172.769 131.448 172.769 128.27C172.769 125.701 171.069 123.548 168.741 122.818L168.732 122.827Z" fill="white"/>
</svg>
